<svg xmlns="http://www.w3.org/2000/svg" viewBox="0 0 32 32" shape-rendering="crispEdges">
  <!-- pixel egg: cream/white body, warm yolk-yellow highlight -->
  <!-- egg body rows -->
  <rect x="11" y="4" width="10" height="2" fill="#f5f0e8"/>
  <rect x="9" y="6" width="14" height="2" fill="#f5f0e8"/>
  <rect x="8" y="8" width="16" height="2" fill="#f5f0e8"/>
  <rect x="7" y="10" width="18" height="2" fill="#f5f0e8"/>
  <rect x="7" y="12" width="18" height="2" fill="#f5f0e8"/>
  <rect x="7" y="14" width="18" height="2" fill="#f5f0e8"/>
  <rect x="8" y="16" width="16" height="2" fill="#f5f0e8"/>
  <rect x="9" y="18" width="14" height="2" fill="#f5f0e8"/>
  <rect x="10" y="20" width="12" height="2" fill="#f5f0e8"/>
  <rect x="12" y="22" width="8" height="2" fill="#f5f0e8"/>
  <!-- highlight -->
  <rect x="12" y="8" width="4" height="2" fill="#fff9ee"/>
  <rect x="11" y="10" width="3" height="2" fill="#fff9ee"/>
  <!-- outline/shadow pixels -->
  <rect x="11" y="3" width="10" height="1" fill="#c8b99a"/>
  <rect x="9" y="5" width="2" height="1" fill="#c8b99a"/>
  <rect x="21" y="5" width="2" height="1" fill="#c8b99a"/>
  <rect x="8" y="7" width="1" height="1" fill="#c8b99a"/>
  <rect x="23" y="7" width="1" height="1" fill="#c8b99a"/>
  <rect x="7" y="9" width="1" height="10" fill="#c8b99a"/>
  <rect x="24" y="9" width="1" height="10" fill="#c8b99a"/>
  <rect x="8" y="19" width="1" height="1" fill="#c8b99a"/>
  <rect x="23" y="19" width="1" height="1" fill="#c8b99a"/>
  <rect x="9" y="20" width="1" height="2" fill="#c8b99a"/>
  <rect x="22" y="20" width="1" height="2" fill="#c8b99a"/>
  <rect x="10" y="22" width="2" height="2" fill="#c8b99a"/>
  <rect x="20" y="22" width="2" height="2" fill="#c8b99a"/>
  <rect x="12" y="24" width="8" height="1" fill="#c8b99a"/>
</svg>
